<svg width="33" height="41" viewBox="0 0 33 41" fill="none" xmlns="http://www.w3.org/2000/svg">
<g clip-path="url(#clip0_2363_3236)">
<path d="M3.62998 0.633057H0.402832V18.4268H3.62998V0.633057Z" fill="#014940"/>
<path d="M14.8038 0.633057H11.5767V18.4268H14.8038V0.633057Z" fill="#014940"/>
<path d="M32.3575 0.633057H29.1304V18.4268H32.3575V0.633057Z" fill="#014940"/>
<path d="M20.2629 14.8438H17.0351V20.6755H11.5776V23.9007H20.2629V14.8438Z" fill="#014940"/>
<path d="M20.0093 29.7962H23.2364L27.3499 14.8438H24.122L20.0093 29.7962Z" fill="#014940"/>
<path d="M2.3125 29.7962H5.53965L9.6531 14.8438H6.42595L2.3125 29.7962Z" fill="#014940"/>
<path d="M5.87109 34.1016V40.6257H6.84826V40.6047V37.8475V36.8798V35.0692V34.1016H5.87109Z" fill="#014940"/>
<path d="M9.6169 37.5253C9.77355 37.4155 9.91324 37.2846 10.0326 37.1368C10.1608 36.9774 10.2618 36.797 10.3337 36.6004C10.4056 36.403 10.4422 36.1928 10.4422 35.9738C10.4422 35.7181 10.3933 35.4727 10.2964 35.2441C10.1994 35.0156 10.0645 34.8149 9.89629 34.6467C9.72744 34.4785 9.52671 34.3436 9.29819 34.2466C9.06966 34.1497 8.82419 34.1008 8.56786 34.1008H6.66914V35.0685H8.56786C8.68789 35.0685 8.80384 35.0916 8.91234 35.137C9.02084 35.1831 9.11849 35.2482 9.20122 35.3309C9.28395 35.4137 9.34905 35.5113 9.39516 35.6198C9.44059 35.729 9.46433 35.8477 9.46433 35.9738C9.46433 36.0999 9.44127 36.2193 9.39516 36.3278C9.34905 36.4363 9.28395 36.5319 9.2019 36.6112C9.11849 36.6919 9.02016 36.7577 8.91099 36.8065C8.80249 36.8547 8.68721 36.8797 8.56718 36.8797H6.66846V37.8474H8.12234L8.56786 37.8244L9.36532 40.6263H10.4951L9.61623 37.526L9.6169 37.5253Z" fill="#014940"/>
<path d="M23.2711 36.8871V35.0759V34.1089H22.2939V40.633H23.2711V40.612V37.8548V36.8871Z" fill="#014940"/>
<path d="M26.0402 37.5326C26.1969 37.4228 26.3366 37.2919 26.4559 37.1441C26.5841 36.9847 26.6851 36.8043 26.757 36.6077C26.8289 36.4104 26.8655 36.2001 26.8655 35.9811C26.8655 35.7255 26.8167 35.48 26.7197 35.2515C26.6227 35.0229 26.4878 34.8222 26.3196 34.654C26.1508 34.4859 25.9501 34.3509 25.7215 34.2539C25.493 34.157 25.2475 34.1082 24.9912 34.1082H23.0925V35.0758H24.9912C25.1112 35.0758 25.2272 35.0989 25.3357 35.1443C25.4442 35.1904 25.5418 35.2555 25.6246 35.3383C25.7073 35.421 25.7724 35.5186 25.8185 35.6271C25.8639 35.7363 25.8877 35.855 25.8877 35.9811C25.8877 36.1072 25.8646 36.2266 25.8185 36.3351C25.7724 36.4436 25.7073 36.5392 25.6252 36.6185C25.5418 36.6992 25.4435 36.765 25.3343 36.8138C25.2258 36.862 25.1105 36.8871 24.9905 36.8871H23.0918V37.8547H24.5457L24.9912 37.8317L25.7887 40.6337H26.9184L26.0396 37.5333L26.0402 37.5326Z" fill="#014940"/>
<path d="M11.603 40.633V34.0933H13.0257C15.2004 34.0933 15.9606 35.1993 15.9606 37.3631C15.9606 39.527 15.2004 40.633 13.0257 40.633H11.603ZM12.5653 34.9592V39.7677H13.0257C14.5271 39.7677 14.9984 39.2002 14.9984 37.3631C14.9984 35.5261 14.5271 34.9592 13.0257 34.9592H12.5653Z" fill="#014940"/>
<path d="M2.823 34.094H1.79904L0 40.6331H1.02531L2.82435 34.094H2.823Z" fill="#014940"/>
<path d="M2.97908 35.7385L2.55322 37.3267L3.69381 40.6332H4.72997L2.97908 35.7385Z" fill="#014940"/>
<path d="M19.3115 34.094H18.2868L16.4878 40.6331H17.5131L19.3121 34.094H19.3115Z" fill="#014940"/>
<path d="M19.4674 35.7385L19.0415 37.3267L20.1814 40.6332H21.2183L19.4674 35.7385Z" fill="#014940"/>
<path d="M30.8496 34.094H29.8249L28.0259 40.6331H29.0512L30.8502 34.094H30.8496Z" fill="#014940"/>
<path d="M31.0054 35.7385L30.5796 37.3267L31.7195 40.6332H32.7563L31.0054 35.7385Z" fill="#014940"/>
</g>
<defs>
<clipPath id="clip0_2363_3236">
<rect width="32.7564" height="40" fill="white" transform="translate(0 0.633057)"/>
</clipPath>
</defs>
</svg>
