<svg width="33" height="33" viewBox="0 0 33 33" fill="none" xmlns="http://www.w3.org/2000/svg">
<path d="M16.7687 0.500041C13.1495 0.504613 9.63809 1.73707 6.80924 3.9972C3.9813 6.25732 2.0022 9.40979 1.19722 12.9408C0.392238 16.4727 0.808891 20.1719 2.37773 23.4359V29.3001C2.37773 29.7244 2.54586 30.1312 2.84555 30.432C3.14525 30.7328 3.55185 30.9001 3.97673 30.9001H9.83728C12.7337 32.3036 15.9847 32.8 19.1672 32.3246C22.3497 31.8492 25.3146 30.4247 27.6748 28.2359C30.0349 26.048 31.6805 23.1973 32.3959 20.0585C33.1123 16.9198 32.8647 13.6375 31.686 10.6413C30.5073 7.64521 28.4532 5.07423 25.7925 3.26485C23.1318 1.45639 19.9859 0.492727 16.7687 0.500041ZM17.5682 21.3001H10.3727C9.80165 21.3001 9.27352 20.9947 8.98753 20.5001C8.70154 20.0055 8.70245 19.3947 8.98753 18.9001C9.27261 18.4055 9.80073 18.1001 10.3727 18.1001H17.5682C18.1393 18.1001 18.6674 18.4055 18.9534 18.9001C19.2394 19.3947 19.2385 20.0055 18.9534 20.5001C18.6683 20.9947 18.1402 21.3001 17.5682 21.3001ZM23.1647 14.9001H10.3727C9.80165 14.9001 9.27352 14.5947 8.98753 14.1001C8.70154 13.6055 8.70245 12.9947 8.98753 12.5001C9.27261 12.0055 9.80073 11.7001 10.3727 11.7001H23.1647C23.7358 11.7001 24.2639 12.0055 24.5499 12.5001C24.8359 12.9947 24.8349 13.6055 24.5499 14.1001C24.2648 14.5947 23.7367 14.9001 23.1647 14.9001V14.9001Z" fill="white"/>
</svg>
