<svg width="26" height="27" viewBox="0 0 26 27" fill="none" xmlns="http://www.w3.org/2000/svg">
<path d="M7.61593 0.592872C6.23273 0.658132 5.28815 0.878872 4.46239 1.20335C3.60777 1.53641 2.88341 1.98335 2.16269 2.70667C1.44197 3.42999 0.998146 4.15487 0.667426 5.01079C0.347366 5.83837 0.130526 6.78373 0.0694258 8.16771C0.00832583 9.55169 -0.00519418 9.99655 0.00156582 13.5268C0.00832582 17.0571 0.0239258 17.4996 0.0910058 18.8865C0.157046 20.2694 0.377006 21.2137 0.701486 22.0398C1.03507 22.8944 1.48149 23.6185 2.20507 24.3395C2.92865 25.0604 3.65301 25.5032 4.51101 25.8345C5.33781 26.154 6.28343 26.3719 7.66715 26.4325C9.05087 26.493 9.49625 26.5071 13.0255 26.5003C16.5547 26.4936 16.9991 26.478 18.3856 26.4122C19.7722 26.3464 20.7116 26.1249 21.5379 25.802C22.3925 25.4676 23.1171 25.022 23.8376 24.2981C24.558 23.5743 25.0016 22.8489 25.3321 21.9924C25.6524 21.1656 25.87 20.22 25.9301 18.8373C25.9906 17.4497 26.0049 17.0067 25.9982 13.4769C25.9914 9.94715 25.9756 9.50463 25.9098 8.11831C25.844 6.73199 25.6238 5.79053 25.2996 4.96399C24.9655 4.10937 24.5196 3.38579 23.7962 2.66429C23.0729 1.94279 22.347 1.49949 21.4908 1.16981C20.6635 0.849752 19.7184 0.631612 18.3347 0.571812C16.951 0.512012 16.5056 0.496672 12.975 0.503432C9.44451 0.510192 9.00251 0.525272 7.61593 0.592872ZM7.76777 24.0938C6.50027 24.0386 5.81205 23.828 5.35341 23.6518C4.74605 23.4178 4.31341 23.1349 3.85633 22.6822C3.39925 22.2296 3.11845 21.7954 2.88133 21.1893C2.70323 20.7307 2.48873 20.0432 2.42945 18.7757C2.36497 17.4058 2.35145 16.9945 2.34391 13.5237C2.33637 10.053 2.34963 9.64217 2.40969 8.27171C2.46377 7.00525 2.67567 6.31625 2.85169 5.85787C3.08569 5.24973 3.36753 4.81787 3.82123 4.36105C4.27493 3.90423 4.70783 3.62291 5.31441 3.38579C5.77253 3.20691 6.45997 2.99423 7.72695 2.93391C9.09793 2.86891 9.50873 2.85591 12.9789 2.84837C16.4492 2.84083 16.861 2.85383 18.2325 2.91415C19.499 2.96927 20.1882 3.17909 20.6461 3.35615C21.2537 3.59015 21.6861 3.87121 22.1429 4.32569C22.5997 4.78017 22.8813 5.21151 23.1184 5.81939C23.2976 6.27621 23.5102 6.96339 23.57 8.23115C23.6353 9.60213 23.6501 10.0132 23.6564 13.4832C23.6626 16.9531 23.6504 17.3652 23.5903 18.7352C23.5349 20.0027 23.3249 20.6911 23.1483 21.1503C22.9143 21.7574 22.6322 22.1903 22.1783 22.6469C21.7243 23.1034 21.2919 23.3847 20.6851 23.6219C20.2275 23.8005 19.5393 24.0137 18.2733 24.074C16.9023 24.1385 16.4915 24.152 13.02 24.1595C9.5485 24.1671 9.13901 24.153 7.76803 24.0938M18.3656 6.55389C18.3661 6.86245 18.4581 7.16393 18.63 7.4202C18.8019 7.67646 19.0459 7.876 19.3312 7.99358C19.6164 8.11117 19.9302 8.14151 20.2327 8.08077C20.5352 8.02003 20.8129 7.87094 21.0307 7.65235C21.2485 7.43377 21.3966 7.15551 21.4562 6.85276C21.5158 6.55002 21.4844 6.23639 21.3657 5.95154C21.2471 5.6667 21.0467 5.42343 20.7898 5.2525C20.5329 5.08158 20.2311 4.99068 19.9225 4.99129C19.5089 4.99212 19.1125 5.1572 18.8205 5.45023C18.5286 5.74326 18.3649 6.14024 18.3656 6.55389ZM6.32503 13.5149C6.33231 17.2017 9.32647 20.1836 13.0125 20.1766C16.6985 20.1696 19.6825 17.1757 19.6755 13.4889C19.6685 9.80207 16.6735 6.81935 12.987 6.82663C9.30047 6.83391 6.31801 9.82859 6.32503 13.5149ZM8.66658 13.5102C8.66489 12.6531 8.91738 11.8148 9.39213 11.1012C9.86689 10.3877 10.5426 9.8309 11.3337 9.50135C12.1249 9.1718 12.9961 9.08426 13.837 9.2498C14.6779 9.41534 15.4509 9.82653 16.0581 10.4314C16.6654 11.0362 17.0796 11.8075 17.2485 12.6478C17.4173 13.4881 17.3332 14.3595 17.0068 15.152C16.6804 15.9445 16.1263 16.6224 15.4146 17.1C14.703 17.5775 13.8657 17.8333 13.0086 17.835C12.4395 17.8362 11.8757 17.7253 11.3495 17.5086C10.8233 17.2919 10.3449 16.9736 9.94173 16.572C9.53852 16.1704 9.21838 15.6933 8.99959 15.1679C8.7808 14.6426 8.66764 14.0793 8.66658 13.5102Z" fill="white"/>
</svg>
