<?xml version="1.0" encoding="utf-8"?>
<!-- Generator: Adobe Illustrator 27.7.0, SVG Export Plug-In . SVG Version: 6.00 Build 0)  -->
<svg version="1.1" id="Layer_1" xmlns="http://www.w3.org/2000/svg" xmlns:xlink="http://www.w3.org/1999/xlink" x="0px" y="0px"
	 viewBox="0 0 500 500" style="enable-background:new 0 0 500 500;" xml:space="preserve">
<style type="text/css">
	.st0{fill:#FFFFFF;}
</style>
<g id="i2xn7S_00000076593297239288340220000008348307210243949191_">
	<g>
		<path class="st0" d="M5.7,479c9.3-10.1,17.6-19.1,25.9-28.1c53.5-57.8,107.1-115.7,160.7-173.4c2.8-3,3.1-4.7,0.5-8.1
			C132,188.3,71.4,107.2,10.7,26.1c-1-1.3-1.9-2.7-2.9-4C9,20.3,10.7,21,12,21c45.3,0,90.7,0,136-0.1c3.3,0,5.4,0.9,7.4,3.7
			c39.1,52.5,78.4,104.9,117.5,157.4c2.7,3.7,4,4.2,7.4,0.5c48.4-52.6,97.1-105,145.5-157.5c2.6-2.8,5.1-4.1,9-4
			c10.5,0.3,21,0.1,31.5,0.1c1.6,0,3.2,0.2,5.8,0.3c-5.5,6-10.4,11.4-15.3,16.7c-52.3,56.5-104.6,113-157,169.4
			c-3.3,3.6-3.6,5.8-0.5,9.8c64.3,85.7,128.4,171.5,192.6,257.2c0.9,1.2,1.7,2.4,2.5,3.7c-1.6,1.5-3.3,0.9-4.9,0.9
			c-45,0-90,0-135,0.1c-3.5,0-5.7-1-7.9-3.8c-42.3-56.8-84.7-113.4-127.1-170.1c-1.4-1.9-2.8-3.7-4.5-5.8
			c-9.4,10.1-18.6,20-27.7,29.8c-44.8,48.4-89.7,96.8-134.4,145.4c-3.1,3.3-6.1,4.8-10.7,4.7C30.5,478.8,18.9,479,5.7,479z M71,52.4
			c0.1,2.5,1.6,3.5,2.5,4.8c20.1,27,40.3,53.9,60.4,80.8c76.3,102,152.6,204,228.8,306.1c1.8,2.4,3.7,3.3,6.6,3.3
			c19.3-0.1,38.7,0,58-0.1c1.2,0,2.7,0.6,3.8-1c-8.8-11.8-17.7-23.7-26.5-35.5c-57.3-76.5-114.5-153.1-171.8-229.6
			c-31.2-41.7-62.4-83.5-93.6-125.3c-1.4-1.9-2.6-3.6-5.5-3.5C113,52.5,92.2,52.4,71,52.4z"/>
	</g>
</g>
</svg>
